<?xml version="1.0" standalone="no"?>
<svg xmlns:xlink="http://www.w3.org/1999/xlink" id="wave" style="transform:rotate(0deg); transition: 0.3s" viewBox="0 0 1440 490" version="1.1" xmlns="http://www.w3.org/2000/svg"><defs><linearGradient id="sw-gradient-0" x1="0" x2="0" y1="1" y2="0"><stop stop-color="rgba(243, 106, 62, 1)" offset="0%"/><stop stop-color="rgba(255, 179, 11, 1)" offset="100%"/></linearGradient></defs><path style="transform:translate(0, 0px); opacity:1" fill="url(#sw-gradient-0)" d="M0,294L10,245C20,196,40,98,60,89.8C80,82,100,163,120,220.5C140,278,160,310,180,269.5C200,229,220,114,240,114.3C260,114,280,229,300,228.7C320,229,340,114,360,65.3C380,16,400,33,420,32.7C440,33,460,16,480,65.3C500,114,520,229,540,228.7C560,229,580,114,600,57.2C620,0,640,0,660,49C680,98,700,196,720,228.7C740,261,760,229,780,204.2C800,180,820,163,840,155.2C860,147,880,147,900,147C920,147,940,147,960,187.8C980,229,1000,310,1020,343C1040,376,1060,359,1080,294C1100,229,1120,114,1140,73.5C1160,33,1180,65,1200,106.2C1220,147,1240,196,1260,253.2C1280,310,1300,376,1320,392C1340,408,1360,376,1380,326.7C1400,278,1420,212,1430,179.7L1440,147L1440,490L1430,490C1420,490,1400,490,1380,490C1360,490,1340,490,1320,490C1300,490,1280,490,1260,490C1240,490,1220,490,1200,490C1180,490,1160,490,1140,490C1120,490,1100,490,1080,490C1060,490,1040,490,1020,490C1000,490,980,490,960,490C940,490,920,490,900,490C880,490,860,490,840,490C820,490,800,490,780,490C760,490,740,490,720,490C700,490,680,490,660,490C640,490,620,490,600,490C580,490,560,490,540,490C520,490,500,490,480,490C460,490,440,490,420,490C400,490,380,490,360,490C340,490,320,490,300,490C280,490,260,490,240,490C220,490,200,490,180,490C160,490,140,490,120,490C100,490,80,490,60,490C40,490,20,490,10,490L0,490Z"/></svg>