<?xml version="1.0" standalone="no"?><svg xmlns="http://www.w3.org/2000/svg" viewBox="0 0 1440 320"><path fill="#ff5500" fill-opacity="1" d="M0,64L21.8,74.7C43.6,85,87,107,131,138.7C174.5,171,218,213,262,202.7C305.5,192,349,128,393,85.3C436.4,43,480,21,524,37.3C567.3,53,611,107,655,133.3C698.2,160,742,160,785,160C829.1,160,873,160,916,176C960,192,1004,224,1047,208C1090.9,192,1135,128,1178,101.3C1221.8,75,1265,85,1309,106.7C1352.7,128,1396,160,1418,176L1440,192L1440,0L1418.2,0C1396.4,0,1353,0,1309,0C1265.5,0,1222,0,1178,0C1134.5,0,1091,0,1047,0C1003.6,0,960,0,916,0C872.7,0,829,0,785,0C741.8,0,698,0,655,0C610.9,0,567,0,524,0C480,0,436,0,393,0C349.1,0,305,0,262,0C218.2,0,175,0,131,0C87.3,0,44,0,22,0L0,0Z"></path></svg>